<?xml version="1.0" standalone="no"?>
<!DOCTYPE svg PUBLIC "-//W3C//DTD SVG 20010904//EN"
 "http://www.w3.org/TR/2001/REC-SVG-20010904/DTD/svg10.dtd">
<svg version="1.0" xmlns="http://www.w3.org/2000/svg"
 width="838.000000pt" height="838.000000pt" viewBox="0 0 838.000000 838.000000"
 preserveAspectRatio="xMidYMid meet">
<metadata>
Created by potrace 1.14, written by Peter Selinger 2001-2017
</metadata>
<g transform="translate(0.000000,838.000000) scale(0.100000,-0.100000)"
fill="#000000" stroke="none">
<path d="M3539 6307 c-58 -22 -77 -40 -133 -129 -29 -46 -61 -94 -72 -107 -10
-12 -27 -32 -37 -44 -44 -53 -197 -215 -251 -266 -33 -31 -76 -72 -96 -91 -21
-19 -68 -62 -105 -95 -37 -33 -82 -73 -99 -88 -17 -16 -43 -37 -57 -47 -26
-19 -26 -19 -37 3 -5 12 -23 37 -38 55 -15 18 -29 39 -30 45 -4 29 -34 86 -68
131 -21 27 -44 65 -51 86 -7 21 -30 60 -49 86 -20 27 -43 65 -52 84 -8 19 -22
50 -30 68 -41 89 -157 169 -289 198 -45 10 -214 12 -254 3 -20 -4 -49 -10 -66
-12 -134 -21 -372 -100 -530 -176 -148 -70 -391 -221 -502 -310 -17 -14 -48
-39 -69 -56 -114 -90 -250 -227 -319 -320 -17 -22 -35 -44 -41 -50 -23 -20
-116 -168 -155 -245 -38 -77 -82 -219 -96 -310 -12 -82 -5 -174 22 -280 18
-71 45 -124 95 -185 9 -11 25 -41 34 -68 10 -26 23 -53 29 -60 33 -35 69 -91
83 -129 8 -23 32 -65 53 -92 21 -28 43 -68 50 -88 16 -48 87 -145 132 -179 46
-35 114 -69 138 -69 11 0 23 -4 26 -10 3 -5 -46 -97 -111 -205 -136 -229 -162
-298 -143 -378 15 -66 32 -99 74 -146 19 -21 39 -57 45 -83 7 -28 28 -64 55
-95 24 -27 47 -63 51 -79 10 -44 31 -81 69 -122 18 -20 38 -55 44 -77 26 -97
119 -180 224 -199 12 -2 41 -9 65 -15 49 -14 173 -17 253 -7 101 12 292 65
365 101 124 61 180 130 312 387 l76 148 32 -61 c18 -33 37 -65 42 -72 5 -7 23
-37 40 -67 16 -30 51 -92 78 -137 27 -45 64 -108 82 -140 41 -73 113 -156 169
-194 57 -40 204 -77 281 -72 72 4 224 39 279 63 51 22 131 76 156 104 11 12
30 40 44 64 17 29 31 41 42 38 9 -2 26 -7 38 -11 170 -48 328 -6 470 128 48
46 63 54 63 38 0 -18 102 -116 151 -144 51 -30 184 -67 242 -67 65 0 238 49
313 89 63 34 221 143 234 162 8 12 34 15 35 4 7 -68 47 -138 100 -172 53 -35
146 -53 273 -53 64 0 137 5 162 11 25 6 50 12 57 13 6 1 32 15 58 31 46 30 81
74 100 128 l11 29 34 -45 c115 -149 344 -223 532 -171 35 9 77 24 93 32 32 16
113 70 130 87 6 6 21 20 35 32 l26 22 39 -35 c75 -67 149 -100 270 -121 65
-12 215 -6 290 12 39 8 81 18 94 21 208 45 494 225 714 449 189 192 466 597
501 732 13 51 13 66 2 110 -17 63 -48 115 -80 136 -15 10 -26 30 -31 54 -9 50
-28 86 -68 125 -22 21 -38 50 -46 81 -12 48 -26 71 -72 117 -15 14 -30 41 -34
60 -37 171 -231 240 -386 138 -27 -19 -66 -61 -99 -107 l-53 -77 -22 20 c-19
18 -31 45 -41 93 -3 18 -44 75 -70 98 -12 11 -28 40 -34 65 -11 43 -42 92 -80
128 -10 9 -23 37 -30 62 -29 108 -120 178 -242 187 -49 4 -83 -1 -153 -22 -49
-14 -95 -31 -102 -37 -21 -17 -25 -4 -14 38 18 72 23 109 26 214 4 135 -27
268 -81 348 -20 28 -40 52 -45 52 -4 0 -11 16 -15 35 -7 37 -77 155 -92 155
-5 0 -14 19 -21 43 -13 43 -77 147 -91 147 -5 0 -11 15 -15 33 -14 68 -84 161
-146 192 -67 35 -175 47 -269 30 -176 -32 -383 -180 -540 -384 -14 -18 -30
-38 -36 -45 -19 -20 -140 -198 -184 -271 -136 -222 -257 -474 -345 -719 l-42
-119 -33 47 c-60 89 -174 156 -315 187 -33 7 -63 14 -67 15 -5 1 -14 2 -20 3
-7 1 -23 19 -36 41 -12 22 -27 40 -32 40 -5 0 -14 18 -20 39 -11 42 -86 161
-101 161 -5 0 -9 9 -9 20 0 10 -8 35 -17 55 -16 33 -16 39 6 123 28 110 30
187 6 282 -19 77 -50 139 -92 177 -12 12 -23 28 -23 35 0 24 -48 112 -79 148
-17 19 -31 40 -31 46 0 20 -60 128 -81 146 -10 9 -26 36 -34 59 -24 66 -72
134 -115 163 -48 32 -129 42 -181 23z m-758 -2643 c-9 -28 -9 -29 -10 -3 -1
14 2 29 6 32 11 12 13 2 4 -29z"/>
</g>
</svg>
